<svg xmlns="http://www.w3.org/2000/svg" xmlns:xlink="http://www.w3.org/1999/xlink" viewBox="0 0 54 52.5" version="1.1" x="0px" y="0px"><title>graduation</title><desc>Created with Sketch.</desc><g stroke="none" stroke-width="1" fill="none" fill-rule="evenodd"><g transform="translate(-63.000000, -189.000000)" fill="#000000"><g transform="translate(63.000000, 189.000000)"><path d="M46.6399091,11.9899704 L27.0272645,19.8558958 L7.41868467,11.9865921 L27,4.11999512 L46.6399091,11.9899704 Z M26.2572186,0.143046618 L1.25721865,10.1430466 C-0.419072882,10.8135632 -0.419072882,13.1864368 1.25721865,13.8569534 L26.2572186,23.8569534 C26.7340407,24.0476822 27.2659593,24.0476822 27.7427814,23.8569534 L52.7427814,13.8569534 C54.4190729,13.1864368 54.4190729,10.8135632 52.7427814,10.1430466 L27.7427814,0.143046618 C27.2659593,-0.0476822061 26.7340407,-0.0476822061 26.2572186,0.143046618 Z"/><path d="M38,34.8500061 C37.1011375,35.2858305 36.1386285,35.7258346 35.085415,36.1368448 C32.0967741,37.3031437 29.0044741,38 26,38 C22.9955259,38 19.9032259,37.3031437 16.914585,36.1368448 C15.8613715,35.7258346 14.8988625,35.2858305 14,34.8500061 L14,17 C14,15.8954305 13.1045695,15 12,15 C10.8954305,15 10,15.8954305 10,17 L10,36 C10,36.6945214 10.3603102,37.3393197 10.9518051,37.7033166 C11.8596238,38.2619743 13.4165524,39.0655503 15.460415,39.8631552 C18.8780241,41.1968563 22.4419741,42 26,42 C29.5580259,42 33.1219759,41.1968563 36.539585,39.8631552 C38.5834476,39.0655503 40.1403762,38.2619743 41.0481949,37.7033166 C41.6396898,37.3393197 42,36.6945214 42,36 L42,17 C42,15.8954305 41.1045695,15 40,15 C38.8954305,15 38,15.8954305 38,17 L38,34.8500061 Z"/><path d="M50,14 C50,12.8954305 49.1045695,12 48,12 C46.8954305,12 46,12.8954305 46,14 L46,31 C46,32.1045695 46.8954305,33 48,33 C49.1045695,33 50,32.1045695 50,31 L50,14 Z"/></g></g></g><text x="0" y="57" fill="#000000" font-size="5px" font-weight="bold" font-family="'Helvetica Neue', Helvetica, Arial-Unicode, Arial, Sans-serif">Created by Andrejs Kirma</text><text x="0" y="62" fill="#000000" font-size="5px" font-weight="bold" font-family="'Helvetica Neue', Helvetica, Arial-Unicode, Arial, Sans-serif">from the Noun Project</text></svg>