<svg xmlns="http://www.w3.org/2000/svg" xmlns:xlink="http://www.w3.org/1999/xlink" version="1.1" x="0px" y="0px" viewBox="0 0 20 25" style="enable-background:new 0 0 20 20;" xml:space="preserve"><path d="M19.4,9.1h-1c-0.4-3.9-3.5-7-7.4-7.4v-1H9.1v1c-3.9,0.4-7,3.5-7.4,7.4h-1v1.9h1c0.4,3.9,3.5,7,7.4,7.4v1h1.9v-1  c3.9-0.4,7-3.5,7.4-7.4h1V9.1z M16.5,9.1h-3.9c-0.3-0.8-0.9-1.4-1.7-1.7V3.5C13.8,3.9,16.1,6.2,16.5,9.1z M9.1,10  c0-0.5,0.4-0.9,0.9-0.9s0.9,0.4,0.9,0.9s-0.4,0.9-0.9,0.9S9.1,10.5,9.1,10z M9.1,3.5v3.9C8.3,7.7,7.7,8.3,7.4,9.1H3.5  C3.9,6.2,6.2,3.9,9.1,3.5z M3.5,10.9h3.9c0.3,0.8,0.9,1.4,1.7,1.7v3.9C6.2,16,4,13.8,3.5,10.9z M10.9,16.4v-3.9  c0.8-0.3,1.4-0.9,1.7-1.7h3.9C16,13.8,13.8,16,10.9,16.4z"/><text x="0" y="35" fill="#000000" font-size="5px" font-weight="bold" font-family="'Helvetica Neue', Helvetica, Arial-Unicode, Arial, Sans-serif">Created by Vectors Market</text><text x="0" y="40" fill="#000000" font-size="5px" font-weight="bold" font-family="'Helvetica Neue', Helvetica, Arial-Unicode, Arial, Sans-serif">from the Noun Project</text></svg>