<svg xmlns="http://www.w3.org/2000/svg" xmlns:xlink="http://www.w3.org/1999/xlink" version="1.1" x="0px" y="0px" viewBox="0 0 100 125" enable-background="new 0 0 100 100" xml:space="preserve"><path d="M78.051,62.216c5.347-5.909,8.623-13.761,8.621-22.366c0.001-9.202-3.732-17.557-9.757-23.585  c-6.021-6.032-14.367-9.771-23.561-9.77c-9.195-0.001-17.541,3.737-23.562,9.77c-6.025,6.028-9.758,14.383-9.756,23.585  c0,0.976,0.056,1.934,0.138,2.88c-1.104,2.232-2.56,5.118-3.789,7.544c-0.672,1.326-1.275,2.514-1.715,3.38  c-0.22,0.433-0.399,0.785-0.526,1.035c-0.063,0.125-0.114,0.225-0.151,0.298l-0.046,0.093l-0.02,0.039l-0.037,0.078l-0.006,0.015  c-0.361,0.804-0.556,1.698-0.555,2.617c-0.001,1.761,0.72,3.378,1.874,4.53c1.149,1.157,2.767,1.882,4.529,1.881h1.414l-0.021,8.647  v0.006c-0.001,2.184,0.891,4.184,2.323,5.612c1.427,1.434,3.427,2.328,5.611,2.327l9.401-0.005l3.241,10.89  c0.19,0.641,0.624,1.173,1.212,1.489s1.272,0.384,1.911,0.189l36.693-11.16c1.321-0.401,2.066-1.797,1.665-3.118L78.051,62.216z   M76.216,78.621l-7.386-7.385c-0.293-0.293-0.768-0.293-1.061,0s-0.293,0.768,0,1.061l6.82,6.819l-3.697,1.124l-3.776-3.776  c-0.293-0.293-0.768-0.293-1.061,0s-0.293,0.768,0,1.061l3.21,3.211l-3.697,1.124l-1.944-1.944c-0.293-0.293-0.768-0.293-1.061,0  s-0.293,0.768,0,1.061l1.378,1.379L45.774,87.88l-3.055-10.267c-0.316-1.064-1.288-1.788-2.397-1.787l-11.266,0.006  c-0.815-0.001-1.533-0.324-2.072-0.86c-0.535-0.54-0.859-1.26-0.86-2.079l0.008-3.397h2.696c0.829,0,1.5-0.672,1.5-1.5  s-0.671-1.5-1.5-1.5h-2.689l0.011-4.75c0.001-0.668-0.258-1.299-0.73-1.771c-0.472-0.473-1.102-0.734-1.77-0.734h-3.92  c-0.392-0.001-0.726-0.152-0.989-0.412c-0.259-0.263-0.412-0.602-0.413-0.999c0-0.216,0.043-0.396,0.114-0.561  c0.037-0.073,0.109-0.218,0.204-0.402c0.947-1.867,4.342-8.529,6.318-12.545c0.21-0.427,0.293-0.899,0.242-1.372  c-0.11-1.022-0.171-2.058-0.171-3.099c0.001-7.84,3.166-14.913,8.294-20.052c5.132-5.134,12.195-8.302,20.024-8.303  c7.828,0.001,14.891,3.169,20.023,8.303c5.128,5.139,8.293,12.212,8.295,20.052c-0.001,7.79-3.136,14.813-8.211,19.946  c-0.646,0.652-0.882,1.607-0.615,2.485l2.627,8.655l-2.979-2.979c-0.293-0.293-0.768-0.293-1.061,0s-0.293,0.768,0,1.061  l4.964,4.964l1.274,4.196L76.216,78.621z"/><path d="M61.172,36.478c4.14-0.001,7.499-3.355,7.5-7.5c-0.001-4.145-3.36-7.499-7.5-7.5c-4.143,0-7.5,3.355-7.5,7.5  c0,0.834,0.142,1.633,0.393,2.382l-6.292,3.643c-1.374-1.545-3.371-2.523-5.601-2.524c-4.144,0-7.5,3.356-7.5,7.5  c0,4.144,3.356,7.5,7.5,7.5c2.229-0.001,4.227-0.979,5.601-2.524l6.292,3.643c-0.251,0.749-0.393,1.548-0.393,2.382  c0,4.144,3.357,7.499,7.5,7.5c4.14-0.001,7.499-3.355,7.5-7.5c-0.001-4.145-3.36-7.499-7.5-7.5c-2.231,0-4.228,0.979-5.602,2.523  l-6.291-3.642c0.251-0.749,0.393-1.548,0.393-2.382s-0.142-1.633-0.393-2.382l6.292-3.643  C56.944,35.498,58.941,36.477,61.172,36.478z M61.172,46.478c1.246,0.001,2.362,0.501,3.182,1.317  c0.816,0.819,1.317,1.935,1.318,3.183c-0.001,1.248-0.502,2.363-1.318,3.183c-0.819,0.816-1.936,1.316-3.182,1.317  c-1.248-0.001-2.363-0.501-3.182-1.317c-0.816-0.819-1.317-1.934-1.318-3.183c0.001-1.249,0.501-2.364,1.318-3.183  C58.809,46.979,59.924,46.479,61.172,46.478z M42.172,44.478c-1.249-0.001-2.364-0.501-3.183-1.317  c-0.816-0.818-1.316-1.934-1.317-3.183c0.001-1.249,0.501-2.364,1.317-3.183c0.819-0.816,1.934-1.316,3.183-1.317  c1.246,0.001,2.362,0.501,3.182,1.317c0.816,0.819,1.317,1.935,1.318,3.183c-0.001,1.248-0.502,2.363-1.318,3.183  C44.534,43.977,43.418,44.477,42.172,44.478z M57.99,25.795c0.819-0.816,1.934-1.316,3.182-1.317  c1.246,0.001,2.362,0.501,3.182,1.317c0.816,0.819,1.317,1.935,1.318,3.183c-0.001,1.248-0.502,2.363-1.318,3.183  c-0.819,0.816-1.936,1.316-3.182,1.317c-1.248-0.001-2.363-0.501-3.182-1.317c-0.816-0.819-1.317-1.934-1.318-3.183  C56.673,27.729,57.173,26.613,57.99,25.795z"/></svg>